<svg width="91" height="30" viewBox="0 0 91 30" fill="none" xmlns="http://www.w3.org/2000/svg">
<path fill-rule="evenodd" clip-rule="evenodd" d="M2.36879 5.1162C2.50259 5.01048 2.6875 5.11237 2.6875 5.28289L2.6875 8.61272C2.6875 8.73354 2.78544 8.83147 2.90625 8.83147C3.02706 8.83147 3.125 8.73354 3.125 8.61272C3.18243 7.25353 3.26872 5.21127 3.28599 4.80258C3.28802 4.75462 3.30515 4.70899 3.34291 4.67935C3.39761 4.63643 3.48851 4.58676 3.58984 4.62054C3.75391 4.67522 3.78125 8.61272 3.78125 8.61272C3.78125 8.73354 3.87919 8.83147 4 8.83147C4.12081 8.83147 4.21875 8.73354 4.21875 8.61272C4.21875 8.61272 4.05469 4.67523 4.21875 4.62053C4.21875 4.62053 4.21875 4.62053 4.21875 4.62053C4.21877 4.62053 4.38282 4.56585 4.54688 4.72991C4.71094 4.89397 4.875 8.61272 4.875 8.61272C4.875 8.73354 4.97294 8.83147 5.09375 8.83147C5.21456 8.83147 5.3125 8.73354 5.3125 8.61272V5.28289C5.3125 5.11237 5.49741 5.01048 5.63121 5.1162C5.93928 5.3596 6.22414 5.67275 6.47487 6.04885C7.13125 7.03342 7.5 8.36878 7.5 9.76116C7.4999 10.9235 7.24265 12.0529 6.76858 12.9723C6.4668 13.5576 6.08802 14.0368 5.65911 14.3831C5.23436 14.7261 4.88293 15.2042 4.89672 15.75C4.97673 18.917 5.28276 17.8835 5.50549 19.6071C5.64381 20.6775 5.75 21.4993 5.75 22.1094C5.75 22.9844 5.75 23.8594 4.875 24.7344C4.4375 25.1719 4.21875 25.3906 4 25.3906C3.78125 25.3906 3.5625 25.1719 3.125 24.7344C2.25 23.8594 2.25 22.9844 2.25 22.1094C2.25 21.4995 2.35612 20.678 2.49437 19.6079C2.71714 17.8836 3.02331 18.9154 3.1033 15.7445C3.11707 15.1988 2.76564 14.7207 2.3409 14.3777C1.91251 14.0317 1.53414 13.5534 1.23254 12.969C0.758531 12.0507 0.500909 10.9226 0.5 9.76116C0.5 8.36878 0.86875 7.03342 1.52513 6.04885C1.77586 5.67275 2.06072 5.3596 2.36879 5.1162Z" fill="#BA2E31"/>
<path d="M19.092 8.256V21.744C19.604 22.048 20.068 22.2 20.484 22.2C20.996 22.2 21.436 21.968 21.804 21.504C22.172 21.024 22.468 20.408 22.692 19.656C22.932 18.888 23.108 18.016 23.22 17.04C23.332 16.064 23.388 15.072 23.388 14.064C23.388 13.04 23.316 12.104 23.172 11.256C23.044 10.392 22.796 9.656 22.428 9.048C22.076 8.424 21.572 7.944 20.916 7.608C20.276 7.272 19.452 7.104 18.444 7.104C17.66 7.104 16.948 7.208 16.308 7.416C15.668 7.624 15.116 7.936 14.652 8.352C14.204 8.752 13.852 9.256 13.596 9.864C13.356 10.456 13.236 11.144 13.236 11.928C13.236 12.392 13.276 12.776 13.356 13.08C13.436 13.384 13.524 13.64 13.62 13.848C13.716 14.056 13.804 14.216 13.884 14.328C13.98 14.44 14.044 14.52 14.076 14.568C13.116 14.568 12.348 14.344 11.772 13.896C11.212 13.448 10.932 12.728 10.932 11.736C10.932 10.952 11.124 10.208 11.508 9.504C11.892 8.8 12.428 8.192 13.116 7.68C13.804 7.168 14.628 6.76 15.588 6.456C16.548 6.152 17.612 6 18.78 6C20.22 6 21.452 6.232 22.476 6.696C23.5 7.16 24.332 7.792 24.972 8.592C25.628 9.392 26.1 10.32 26.388 11.376C26.692 12.432 26.844 13.56 26.844 14.76C26.844 15.848 26.732 16.952 26.508 18.072C26.284 19.192 25.964 20.208 25.548 21.12C25.132 22.032 24.636 22.776 24.06 23.352C23.484 23.928 22.836 24.216 22.116 24.216C21.748 24.216 21.3 24.128 20.772 23.952C20.26 23.776 19.7 23.48 19.092 23.064V24H15.612V8.736L19.092 8.256ZM33.0127 12V20.16C33.0127 20.832 33.1007 21.28 33.2767 21.504C33.4687 21.712 33.7967 21.816 34.2607 21.816C34.7247 21.816 35.1087 21.616 35.4127 21.216C35.7327 20.816 35.9167 20.312 35.9647 19.704H36.9727C36.8447 20.68 36.6207 21.464 36.3007 22.056C35.9807 22.632 35.6207 23.08 35.2207 23.4C34.8207 23.704 34.4127 23.904 33.9967 24C33.5807 24.096 33.2127 24.144 32.8927 24.144C31.6607 24.144 30.7967 23.808 30.3007 23.136C29.8047 22.448 29.5567 21.544 29.5567 20.424V12H33.0127ZM29.2927 8.808C29.2927 8.28 29.4767 7.832 29.8447 7.464C30.2127 7.08 30.6607 6.888 31.1887 6.888C31.7167 6.888 32.1647 7.08 32.5327 7.464C32.9167 7.832 33.1087 8.28 33.1087 8.808C33.1087 9.336 32.9167 9.784 32.5327 10.152C32.1647 10.52 31.7167 10.704 31.1887 10.704C30.6607 10.704 30.2127 10.52 29.8447 10.152C29.4767 9.784 29.2927 9.336 29.2927 8.808ZM43.0352 16.752C43.0352 15.792 42.9232 15.112 42.6992 14.712C42.4912 14.296 42.1872 14.088 41.7872 14.088C41.5472 14.088 41.3392 14.152 41.1632 14.28C41.0032 14.408 40.8672 14.576 40.7552 14.784C40.6432 14.992 40.5552 15.232 40.4912 15.504C40.4272 15.76 40.3872 16.024 40.3712 16.296V24H36.9152V12H40.3712V13.248C40.7392 12.688 41.1552 12.328 41.6192 12.168C42.0832 11.992 42.5232 11.904 42.9392 11.904C43.3872 11.904 43.8112 11.976 44.2112 12.12C44.6272 12.264 44.9872 12.512 45.2912 12.864C45.6112 13.2 45.8592 13.656 46.0352 14.232C46.2112 14.792 46.2992 15.488 46.2992 16.32C46.2992 16.528 46.2912 16.792 46.2752 17.112C46.2752 17.416 46.2672 17.728 46.2512 18.048C46.2352 18.368 46.2192 18.68 46.2032 18.984C46.2032 19.288 46.2032 19.544 46.2032 19.752C46.2032 20.44 46.2752 20.96 46.4192 21.312C46.5632 21.648 46.8832 21.816 47.3792 21.816C47.9232 21.816 48.2992 21.616 48.5072 21.216C48.7312 20.816 48.9072 20.312 49.0352 19.704H50.0432C49.9152 20.664 49.7232 21.44 49.4672 22.032C49.2112 22.608 48.9232 23.056 48.6032 23.376C48.2832 23.68 47.9392 23.888 47.5712 24C47.2032 24.096 46.8432 24.144 46.4912 24.144C45.2592 24.144 44.3632 23.736 43.8032 22.92C43.2592 22.104 42.9872 21.016 42.9872 19.656C42.9872 19.512 42.9872 19.312 42.9872 19.056C43.0032 18.784 43.0112 18.504 43.0112 18.216C43.0112 17.928 43.0112 17.656 43.0112 17.4C43.0272 17.128 43.0352 16.912 43.0352 16.752ZM55.4644 22.128C55.9444 22.128 56.3684 22.064 56.7364 21.936C57.1044 21.808 57.4324 21.64 57.7204 21.432C58.0084 21.208 58.2724 20.952 58.5124 20.664C58.7524 20.36 58.9844 20.04 59.2084 19.704H60.0244C59.8004 20.264 59.5284 20.808 59.2084 21.336C58.9044 21.864 58.5204 22.336 58.0564 22.752C57.6084 23.168 57.0804 23.504 56.4724 23.76C55.8644 24.016 55.1524 24.144 54.3364 24.144C53.6484 24.144 53.0164 24.04 52.4404 23.832C51.8644 23.624 51.3604 23.304 50.9284 22.872C50.5124 22.424 50.1844 21.856 49.9444 21.168C49.7204 20.464 49.6084 19.624 49.6084 18.648C49.6084 17.96 49.6804 17.224 49.8244 16.44C49.9844 15.64 50.2564 14.904 50.6404 14.232C51.0244 13.56 51.5444 13 52.2004 12.552C52.8564 12.104 53.6884 11.88 54.6964 11.88C55.4644 11.88 56.0564 12 56.4724 12.24C56.8884 12.48 57.1924 12.76 57.3844 13.08C57.5924 13.4 57.7124 13.712 57.7444 14.016C57.7924 14.32 57.8164 14.536 57.8164 14.664C57.8164 15.384 57.6804 16.016 57.4084 16.56C57.1524 17.104 56.8004 17.568 56.3524 17.952C55.9204 18.32 55.4164 18.608 54.8404 18.816C54.2804 19.008 53.7044 19.12 53.1124 19.152C53.1284 20.224 53.3044 20.992 53.6404 21.456C53.9924 21.904 54.6004 22.128 55.4644 22.128ZM55.9684 14.688C55.9684 14.128 55.8724 13.736 55.6804 13.512C55.4884 13.272 55.2804 13.152 55.0564 13.152C54.7844 13.152 54.5364 13.288 54.3124 13.56C54.0884 13.816 53.8884 14.168 53.7124 14.616C53.5524 15.048 53.4164 15.56 53.3044 16.152C53.2084 16.744 53.1444 17.36 53.1124 18C53.5124 17.968 53.8884 17.864 54.2404 17.688C54.5924 17.496 54.8964 17.256 55.1524 16.968C55.4084 16.664 55.6084 16.32 55.7524 15.936C55.8964 15.552 55.9684 15.136 55.9684 14.688ZM70.0273 12V23.136C70.3633 23.008 70.6593 22.856 70.9153 22.68C71.1713 22.504 71.3953 22.288 71.5873 22.032C71.7793 21.76 71.9313 21.44 72.0433 21.072C72.1713 20.688 72.2673 20.232 72.3313 19.704H73.3393C73.2593 20.504 73.1073 21.168 72.8833 21.696C72.6753 22.208 72.4113 22.632 72.0913 22.968C71.7873 23.304 71.4513 23.568 71.0833 23.76C70.7313 23.952 70.3793 24.104 70.0273 24.216V25.92C70.0273 26.784 69.9233 27.48 69.7153 28.008C69.5073 28.536 69.2353 28.944 68.8993 29.232C68.5793 29.536 68.2193 29.736 67.8193 29.832C67.4353 29.944 67.0593 30 66.6913 30C66.2273 30 65.7873 29.936 65.3713 29.808C64.9713 29.68 64.6193 29.496 64.3153 29.256C64.0273 29.032 63.7953 28.752 63.6193 28.416C63.4433 28.08 63.3553 27.704 63.3553 27.288C63.3553 26.856 63.4433 26.464 63.6193 26.112C63.8113 25.776 64.0593 25.48 64.3633 25.224C64.6673 24.968 65.0113 24.744 65.3953 24.552C65.7793 24.376 66.1713 24.224 66.5713 24.096V22.08C66.2993 22.528 65.9473 22.904 65.5153 23.208C65.0993 23.512 64.5473 23.664 63.8593 23.664C63.3633 23.664 62.8673 23.568 62.3713 23.376C61.8753 23.184 61.4273 22.88 61.0273 22.464C60.6273 22.048 60.2993 21.504 60.0433 20.832C59.8033 20.144 59.6833 19.32 59.6833 18.36C59.6833 17.64 59.7633 16.904 59.9233 16.152C60.0833 15.384 60.3473 14.688 60.7153 14.064C61.0993 13.424 61.5953 12.904 62.2033 12.504C62.8273 12.088 63.5873 11.88 64.4833 11.88C64.6433 11.88 64.8193 11.896 65.0113 11.928C65.2193 11.944 65.4193 11.992 65.6113 12.072C65.8033 12.152 65.9873 12.272 66.1633 12.432C66.3393 12.592 66.4753 12.808 66.5713 13.08V12H70.0273ZM65.4193 13.368C65.0193 13.368 64.6753 13.52 64.3873 13.824C64.1153 14.128 63.8833 14.52 63.6913 15C63.5153 15.464 63.3873 15.984 63.3073 16.56C63.2273 17.136 63.1873 17.696 63.1873 18.24C63.1873 18.992 63.2513 19.576 63.3793 19.992C63.5073 20.408 63.6593 20.72 63.8353 20.928C64.0113 21.12 64.1873 21.24 64.3633 21.288C64.5393 21.32 64.6753 21.336 64.7713 21.336C65.2833 21.336 65.6913 21.168 65.9953 20.832C66.3153 20.496 66.5073 20.072 66.5713 19.56V14.208C66.5233 14.048 66.4033 13.872 66.2113 13.68C66.0353 13.472 65.7713 13.368 65.4193 13.368ZM64.6273 27.096C64.6273 27.4 64.7313 27.648 64.9393 27.84C65.1473 28.032 65.3633 28.128 65.5873 28.128C65.8753 28.128 66.1073 27.952 66.2833 27.6C66.4753 27.248 66.5713 26.712 66.5713 25.992V25.296C66.0113 25.52 65.5473 25.776 65.1793 26.064C64.8113 26.368 64.6273 26.712 64.6273 27.096ZM78.0154 11.88C79.1194 11.88 79.9994 12.184 80.6554 12.792C81.3114 13.384 81.7354 14.344 81.9274 15.672H82.0954C82.3194 15.672 82.5674 15.632 82.8394 15.552C83.1274 15.472 83.4234 15.368 83.7274 15.24C84.0314 15.112 84.3274 14.96 84.6154 14.784C84.9034 14.608 85.1594 14.424 85.3834 14.232L85.7434 14.88C85.5674 15.136 85.3434 15.368 85.0714 15.576C84.8154 15.784 84.5194 15.976 84.1834 16.152C83.8474 16.312 83.4954 16.456 83.1274 16.584C82.7594 16.696 82.3914 16.784 82.0234 16.848C82.0394 16.96 82.0474 17.072 82.0474 17.184C82.0474 17.28 82.0474 17.384 82.0474 17.496C82.0474 18.424 81.9674 19.296 81.8074 20.112C81.6474 20.912 81.3754 21.616 80.9914 22.224C80.6234 22.816 80.1434 23.288 79.5514 23.64C78.9594 23.976 78.2314 24.144 77.3674 24.144C76.7754 24.144 76.2074 24.056 75.6634 23.88C75.1354 23.688 74.6634 23.384 74.2474 22.968C73.8314 22.536 73.4954 21.976 73.2394 21.288C72.9994 20.584 72.8794 19.728 72.8794 18.72C72.8794 18.032 72.9514 17.296 73.0954 16.512C73.2394 15.712 73.5034 14.968 73.8874 14.28C74.2714 13.592 74.7914 13.024 75.4474 12.576C76.1194 12.112 76.9754 11.88 78.0154 11.88ZM78.0394 21.888C78.3754 21.888 78.6634 21.776 78.9034 21.552C79.1594 21.312 79.3674 20.992 79.5274 20.592C79.6874 20.176 79.7994 19.688 79.8634 19.128C79.9434 18.568 79.9834 17.96 79.9834 17.304V16.944C79.5834 16.864 79.3274 16.712 79.2154 16.488C79.1034 16.264 79.0474 16.016 79.0474 15.744C79.0474 15.408 79.1034 15.152 79.2154 14.976C79.3274 14.8 79.4714 14.68 79.6474 14.616C79.4714 14.072 79.2554 13.72 78.9994 13.56C78.7594 13.4 78.5514 13.32 78.3754 13.32C78.0234 13.32 77.7194 13.488 77.4634 13.824C77.2234 14.144 77.0234 14.56 76.8634 15.072C76.7034 15.568 76.5834 16.12 76.5034 16.728C76.4394 17.336 76.4074 17.92 76.4074 18.48C76.4074 19.2 76.4554 19.784 76.5514 20.232C76.6634 20.68 76.7994 21.024 76.9594 21.264C77.1194 21.504 77.2954 21.672 77.4874 21.768C77.6794 21.848 77.8634 21.888 78.0394 21.888ZM88.3463 8.208V12H89.7863V12.96H88.3463V20.16C88.3463 20.832 88.4343 21.28 88.6103 21.504C88.8023 21.712 89.1303 21.816 89.5943 21.816C89.7703 21.816 89.9063 21.8 90.0023 21.768C90.1143 21.72 90.2023 21.672 90.2663 21.624C90.2823 21.704 90.2903 21.792 90.2903 21.888C90.2903 21.968 90.2903 22.048 90.2903 22.128C90.2903 22.8 90.0903 23.304 89.6903 23.64C89.3063 23.976 88.8183 24.144 88.2263 24.144C86.9943 24.144 86.1303 23.808 85.6343 23.136C85.1383 22.448 84.8903 21.544 84.8903 20.424V12.96H84.1223V12H84.8903V8.688L88.3463 8.208Z" fill="#BA2E31"/>
</svg>
