<svg width="181" height="60" viewBox="0 0 181 60" fill="none" xmlns="http://www.w3.org/2000/svg">
<path fill-rule="evenodd" clip-rule="evenodd" d="M4.23759 10.2324C4.50518 10.021 4.875 10.2247 4.875 10.5658L4.875 17.2254C4.875 17.4671 5.07088 17.6629 5.3125 17.6629C5.55412 17.6629 5.75 17.4671 5.75 17.2254C5.86486 14.5071 6.03745 10.4225 6.07198 9.60516C6.07604 9.50923 6.11029 9.41798 6.18582 9.35871C6.29522 9.27286 6.47702 9.17352 6.67969 9.24107C7.00781 9.35045 7.0625 17.2254 7.0625 17.2254C7.0625 17.4671 7.25838 17.6629 7.5 17.6629C7.74162 17.6629 7.9375 17.4671 7.9375 17.2254C7.9375 17.2254 7.60938 9.35046 7.9375 9.24107C7.9375 9.24107 7.9375 9.24107 7.9375 9.24107C7.93754 9.24105 8.26565 9.13171 8.59375 9.45982C8.92188 9.78795 9.25 17.2254 9.25 17.2254C9.25 17.4671 9.44588 17.6629 9.6875 17.6629C9.92912 17.6629 10.125 17.4671 10.125 17.2254V10.5658C10.125 10.2247 10.4948 10.021 10.7624 10.2324C11.3786 10.7192 11.9483 11.3455 12.4497 12.0977C13.7625 14.0668 14.5 16.7376 14.5 19.5223C14.4998 21.847 13.9853 24.1058 13.0372 25.9447C12.4336 27.1153 11.676 28.0735 10.8182 28.7663C9.96873 29.4523 9.26586 30.4085 9.29344 31.5C9.45345 37.834 10.0655 35.7669 10.511 39.2142C10.7876 41.355 11 42.9985 11 44.2188C11 45.9688 11 47.7188 9.25 49.4688C8.375 50.3438 7.9375 50.7812 7.5 50.7812C7.0625 50.7812 6.625 50.3438 5.75 49.4688C4 47.7188 4 45.9688 4 44.2188C4 42.9989 4.21225 41.356 4.48874 39.2158C4.93427 35.7672 5.54662 37.8309 5.7066 31.4891C5.73414 30.3975 5.03128 29.4414 4.18179 28.7553C3.32503 28.0635 2.56828 27.1067 1.96507 25.9381C1.01706 24.1014 0.501819 21.8451 0.5 19.5223C0.5 16.7376 1.2375 14.0668 2.55025 12.0977C3.05172 11.3455 3.62145 10.7192 4.23759 10.2324Z" fill="#BA2E31"/>
<path d="M37.684 16.512V43.488C38.708 44.096 39.636 44.4 40.468 44.4C41.492 44.4 42.372 43.936 43.108 43.008C43.844 42.048 44.436 40.816 44.884 39.312C45.364 37.776 45.716 36.032 45.94 34.08C46.164 32.128 46.276 30.144 46.276 28.128C46.276 26.08 46.132 24.208 45.844 22.512C45.588 20.784 45.092 19.312 44.356 18.096C43.652 16.848 42.644 15.888 41.332 15.216C40.052 14.544 38.404 14.208 36.388 14.208C34.82 14.208 33.396 14.416 32.116 14.832C30.836 15.248 29.732 15.872 28.804 16.704C27.908 17.504 27.204 18.512 26.692 19.728C26.212 20.912 25.972 22.288 25.972 23.856C25.972 24.784 26.052 25.552 26.212 26.16C26.372 26.768 26.548 27.28 26.74 27.696C26.932 28.112 27.108 28.432 27.268 28.656C27.46 28.88 27.588 29.04 27.652 29.136C25.732 29.136 24.196 28.688 23.044 27.792C21.924 26.896 21.364 25.456 21.364 23.472C21.364 21.904 21.748 20.416 22.516 19.008C23.284 17.6 24.356 16.384 25.732 15.36C27.108 14.336 28.756 13.52 30.676 12.912C32.596 12.304 34.724 12 37.06 12C39.94 12 42.404 12.464 44.452 13.392C46.5 14.32 48.164 15.584 49.444 17.184C50.756 18.784 51.7 20.64 52.276 22.752C52.884 24.864 53.188 27.12 53.188 29.52C53.188 31.696 52.964 33.904 52.516 36.144C52.068 38.384 51.428 40.416 50.596 42.24C49.764 44.064 48.772 45.552 47.62 46.704C46.468 47.856 45.172 48.432 43.732 48.432C42.996 48.432 42.1 48.256 41.044 47.904C40.02 47.552 38.9 46.96 37.684 46.128V48H30.724V17.472L37.684 16.512ZM65.5255 24V40.32C65.5255 41.664 65.7015 42.56 66.0535 43.008C66.4375 43.424 67.0935 43.632 68.0215 43.632C68.9495 43.632 69.7175 43.232 70.3255 42.432C70.9655 41.632 71.3335 40.624 71.4295 39.408H73.4455C73.1895 41.36 72.7415 42.928 72.1015 44.112C71.4615 45.264 70.7415 46.16 69.9415 46.8C69.1415 47.408 68.3255 47.808 67.4935 48C66.6615 48.192 65.9255 48.288 65.2855 48.288C62.8215 48.288 61.0935 47.616 60.1015 46.272C59.1095 44.896 58.6135 43.088 58.6135 40.848V24H65.5255ZM58.0855 17.616C58.0855 16.56 58.4535 15.664 59.1895 14.928C59.9255 14.16 60.8215 13.776 61.8775 13.776C62.9335 13.776 63.8295 14.16 64.5655 14.928C65.3335 15.664 65.7175 16.56 65.7175 17.616C65.7175 18.672 65.3335 19.568 64.5655 20.304C63.8295 21.04 62.9335 21.408 61.8775 21.408C60.8215 21.408 59.9255 21.04 59.1895 20.304C58.4535 19.568 58.0855 18.672 58.0855 17.616ZM85.5704 33.504C85.5704 31.584 85.3464 30.224 84.8984 29.424C84.4824 28.592 83.8744 28.176 83.0744 28.176C82.5944 28.176 82.1784 28.304 81.8264 28.56C81.5064 28.816 81.2344 29.152 81.0104 29.568C80.7864 29.984 80.6104 30.464 80.4824 31.008C80.3544 31.52 80.2744 32.048 80.2424 32.592V48H73.3304V24H80.2424V26.496C80.9784 25.376 81.8104 24.656 82.7384 24.336C83.6664 23.984 84.5464 23.808 85.3784 23.808C86.2744 23.808 87.1224 23.952 87.9224 24.24C88.7544 24.528 89.4744 25.024 90.0824 25.728C90.7224 26.4 91.2184 27.312 91.5704 28.464C91.9224 29.584 92.0984 30.976 92.0984 32.64C92.0984 33.056 92.0824 33.584 92.0504 34.224C92.0504 34.832 92.0344 35.456 92.0024 36.096C91.9704 36.736 91.9384 37.36 91.9064 37.968C91.9064 38.576 91.9064 39.088 91.9064 39.504C91.9064 40.88 92.0504 41.92 92.3384 42.624C92.6264 43.296 93.2664 43.632 94.2584 43.632C95.3464 43.632 96.0984 43.232 96.5144 42.432C96.9624 41.632 97.3144 40.624 97.5704 39.408H99.5864C99.3304 41.328 98.9464 42.88 98.4344 44.064C97.9224 45.216 97.3464 46.112 96.7064 46.752C96.0664 47.36 95.3784 47.776 94.6424 48C93.9064 48.192 93.1864 48.288 92.4824 48.288C90.0184 48.288 88.2264 47.472 87.1064 45.84C86.0184 44.208 85.4744 42.032 85.4744 39.312C85.4744 39.024 85.4744 38.624 85.4744 38.112C85.5064 37.568 85.5224 37.008 85.5224 36.432C85.5224 35.856 85.5224 35.312 85.5224 34.8C85.5544 34.256 85.5704 33.824 85.5704 33.504ZM110.429 44.256C111.389 44.256 112.237 44.128 112.973 43.872C113.709 43.616 114.365 43.28 114.941 42.864C115.517 42.416 116.045 41.904 116.525 41.328C117.005 40.72 117.469 40.08 117.917 39.408H119.549C119.101 40.528 118.557 41.616 117.917 42.672C117.309 43.728 116.541 44.672 115.613 45.504C114.717 46.336 113.661 47.008 112.445 47.52C111.229 48.032 109.805 48.288 108.173 48.288C106.797 48.288 105.533 48.08 104.381 47.664C103.229 47.248 102.221 46.608 101.357 45.744C100.525 44.848 99.8688 43.712 99.3888 42.336C98.9408 40.928 98.7168 39.248 98.7168 37.296C98.7168 35.92 98.8608 34.448 99.1488 32.88C99.4688 31.28 100.013 29.808 100.781 28.464C101.549 27.12 102.589 26 103.901 25.104C105.213 24.208 106.877 23.76 108.893 23.76C110.429 23.76 111.613 24 112.445 24.48C113.277 24.96 113.885 25.52 114.269 26.16C114.685 26.8 114.925 27.424 114.989 28.032C115.085 28.64 115.133 29.072 115.133 29.328C115.133 30.768 114.861 32.032 114.317 33.12C113.805 34.208 113.101 35.136 112.205 35.904C111.341 36.64 110.333 37.216 109.181 37.632C108.061 38.016 106.909 38.24 105.725 38.304C105.757 40.448 106.109 41.984 106.781 42.912C107.485 43.808 108.701 44.256 110.429 44.256ZM111.437 29.376C111.437 28.256 111.245 27.472 110.861 27.024C110.477 26.544 110.061 26.304 109.613 26.304C109.069 26.304 108.573 26.576 108.125 27.12C107.677 27.632 107.277 28.336 106.925 29.232C106.605 30.096 106.333 31.12 106.109 32.304C105.917 33.488 105.789 34.72 105.725 36C106.525 35.936 107.277 35.728 107.981 35.376C108.685 34.992 109.293 34.512 109.805 33.936C110.317 33.328 110.717 32.64 111.005 31.872C111.293 31.104 111.437 30.272 111.437 29.376ZM139.555 24V46.272C140.227 46.016 140.819 45.712 141.331 45.36C141.843 45.008 142.291 44.576 142.675 44.064C143.059 43.52 143.363 42.88 143.587 42.144C143.843 41.376 144.035 40.464 144.163 39.408H146.179C146.019 41.008 145.715 42.336 145.267 43.392C144.851 44.416 144.323 45.264 143.683 45.936C143.075 46.608 142.403 47.136 141.667 47.52C140.963 47.904 140.259 48.208 139.555 48.432V51.84C139.555 53.568 139.347 54.96 138.931 56.016C138.515 57.072 137.971 57.888 137.299 58.464C136.659 59.072 135.939 59.472 135.139 59.664C134.371 59.888 133.619 60 132.883 60C131.955 60 131.075 59.872 130.243 59.616C129.443 59.36 128.739 58.992 128.131 58.512C127.555 58.064 127.091 57.504 126.739 56.832C126.387 56.16 126.211 55.408 126.211 54.576C126.211 53.712 126.387 52.928 126.739 52.224C127.123 51.552 127.619 50.96 128.227 50.448C128.835 49.936 129.523 49.488 130.291 49.104C131.059 48.752 131.843 48.448 132.643 48.192V44.16C132.099 45.056 131.395 45.808 130.531 46.416C129.699 47.024 128.595 47.328 127.219 47.328C126.227 47.328 125.235 47.136 124.243 46.752C123.251 46.368 122.355 45.76 121.555 44.928C120.755 44.096 120.099 43.008 119.587 41.664C119.107 40.288 118.867 38.64 118.867 36.72C118.867 35.28 119.027 33.808 119.347 32.304C119.667 30.768 120.195 29.376 120.931 28.128C121.699 26.848 122.691 25.808 123.907 25.008C125.155 24.176 126.675 23.76 128.467 23.76C128.787 23.76 129.139 23.792 129.523 23.856C129.939 23.888 130.339 23.984 130.723 24.144C131.107 24.304 131.475 24.544 131.827 24.864C132.179 25.184 132.451 25.616 132.643 26.16V24H139.555ZM130.339 26.736C129.539 26.736 128.851 27.04 128.275 27.648C127.731 28.256 127.267 29.04 126.883 30C126.531 30.928 126.275 31.968 126.115 33.12C125.955 34.272 125.875 35.392 125.875 36.48C125.875 37.984 126.003 39.152 126.259 39.984C126.515 40.816 126.819 41.44 127.171 41.856C127.523 42.24 127.875 42.48 128.227 42.576C128.579 42.64 128.851 42.672 129.043 42.672C130.067 42.672 130.883 42.336 131.491 41.664C132.131 40.992 132.515 40.144 132.643 39.12V28.416C132.547 28.096 132.307 27.744 131.923 27.36C131.571 26.944 131.043 26.736 130.339 26.736ZM128.755 54.192C128.755 54.8 128.963 55.296 129.379 55.68C129.795 56.064 130.227 56.256 130.675 56.256C131.251 56.256 131.715 55.904 132.067 55.2C132.451 54.496 132.643 53.424 132.643 51.984V50.592C131.523 51.04 130.595 51.552 129.859 52.128C129.123 52.736 128.755 53.424 128.755 54.192ZM155.531 23.76C157.739 23.76 159.499 24.368 160.811 25.584C162.123 26.768 162.971 28.688 163.355 31.344H163.691C164.139 31.344 164.635 31.264 165.179 31.104C165.755 30.944 166.347 30.736 166.955 30.48C167.563 30.224 168.155 29.92 168.731 29.568C169.307 29.216 169.819 28.848 170.267 28.464L170.987 29.76C170.635 30.272 170.187 30.736 169.643 31.152C169.131 31.568 168.539 31.952 167.867 32.304C167.195 32.624 166.491 32.912 165.755 33.168C165.019 33.392 164.283 33.568 163.547 33.696C163.579 33.92 163.595 34.144 163.595 34.368C163.595 34.56 163.595 34.768 163.595 34.992C163.595 36.848 163.435 38.592 163.115 40.224C162.795 41.824 162.251 43.232 161.483 44.448C160.747 45.632 159.787 46.576 158.603 47.28C157.419 47.952 155.963 48.288 154.235 48.288C153.051 48.288 151.915 48.112 150.827 47.76C149.771 47.376 148.827 46.768 147.995 45.936C147.163 45.072 146.491 43.952 145.979 42.576C145.499 41.168 145.259 39.456 145.259 37.44C145.259 36.064 145.403 34.592 145.691 33.024C145.979 31.424 146.507 29.936 147.275 28.56C148.043 27.184 149.083 26.048 150.395 25.152C151.739 24.224 153.451 23.76 155.531 23.76ZM155.579 43.776C156.251 43.776 156.827 43.552 157.307 43.104C157.819 42.624 158.235 41.984 158.555 41.184C158.875 40.352 159.099 39.376 159.227 38.256C159.387 37.136 159.467 35.92 159.467 34.608V33.888C158.667 33.728 158.155 33.424 157.931 32.976C157.707 32.528 157.595 32.032 157.595 31.488C157.595 30.816 157.707 30.304 157.931 29.952C158.155 29.6 158.443 29.36 158.795 29.232C158.443 28.144 158.011 27.44 157.499 27.12C157.019 26.8 156.603 26.64 156.251 26.64C155.547 26.64 154.939 26.976 154.427 27.648C153.947 28.288 153.547 29.12 153.227 30.144C152.907 31.136 152.667 32.24 152.507 33.456C152.379 34.672 152.315 35.84 152.315 36.96C152.315 38.4 152.411 39.568 152.603 40.464C152.827 41.36 153.099 42.048 153.419 42.528C153.739 43.008 154.091 43.344 154.475 43.536C154.859 43.696 155.227 43.776 155.579 43.776ZM176.193 16.416V24H179.073V25.92H176.193V40.32C176.193 41.664 176.369 42.56 176.721 43.008C177.105 43.424 177.761 43.632 178.689 43.632C179.041 43.632 179.313 43.6 179.505 43.536C179.729 43.44 179.905 43.344 180.033 43.248C180.065 43.408 180.081 43.584 180.081 43.776C180.081 43.936 180.081 44.096 180.081 44.256C180.081 45.6 179.681 46.608 178.881 47.28C178.113 47.952 177.137 48.288 175.953 48.288C173.489 48.288 171.761 47.616 170.769 46.272C169.777 44.896 169.281 43.088 169.281 40.848V25.92H167.745V24H169.281V17.376L176.193 16.416Z" fill="#BA2E31"/>
</svg>
