<svg version="1.0" xmlns="http://www.w3.org/2000/svg"
 width="100.000000pt" height="100.000000pt" viewBox="0 0 100.000000 100.000000"
 preserveAspectRatio="xMidYMid meet">

<g transform="translate(0.000000,100.000000) scale(0.100000,-0.100000)"
fill="currentColor" stroke="none">
<path d="M145 906 c-37 -17 -80 -62 -94 -99 -17 -45 -15 -599 3 -640 16 -39
61 -82 99 -96 45 -17 659 -15 700 3 39 16 82 61 96 99 15 38 15 596 0 634 -14
38 -57 83 -96 99 -46 20 -664 20 -708 0z m704 -44 c65 -35 71 -60 71 -302 0
-336 20 -320 -420 -320 -440 0 -420 -16 -420 320 0 337 -22 320 420 320 286 0
318 -2 349 -18z m-696 -651 c38 -15 656 -15 694 0 15 6 38 20 51 31 l22 21 0
-29 c0 -43 -32 -95 -71 -116 -31 -16 -63 -18 -349 -18 -286 0 -318 2 -349 18
-39 21 -71 73 -71 116 l0 29 23 -21 c12 -11 35 -25 50 -31z"/>
<path d="M590 569 c0 -98 0 -100 23 -98 12 2 32 -1 44 -5 71 -24 112 98 47
141 -20 13 -30 14 -49 5 -24 -11 -25 -10 -25 23 0 28 -4 35 -20 35 -19 0 -20
-7 -20 -101z m99 7 c17 -20 10 -67 -11 -79 -23 -15 -48 8 -48 42 0 45 35 66
59 37z"/>
<path d="M260 645 c0 -10 10 -15 30 -15 l30 0 0 -80 c0 -73 2 -80 20 -80 18 0
20 7 20 80 l0 80 30 0 c20 0 30 5 30 15 0 12 -16 15 -80 15 -64 0 -80 -3 -80
-15z"/>
<path d="M449 601 c-29 -24 -18 -39 15 -21 27 14 60 7 54 -12 -3 -7 -22 -16
-42 -19 -56 -9 -70 -35 -35 -70 15 -15 27 -19 42 -14 12 4 32 6 45 6 20 -1 22
3 22 58 0 66 -15 91 -55 91 -12 0 -33 -9 -46 -19z m69 -83 c-7 -21 -36 -34
-49 -21 -6 6 -8 16 -5 22 10 15 59 14 54 -1z"/>
</g>
</svg>
